HIERARCHY
ROOT Hips
{
	OFFSET 0.000000 0.000000 0.000000 
	CHANNELS 6 Xposition Yposition Zposition Zrotation Yrotation Xrotation
	JOINT LeftUpLeg
	{
		OFFSET 1.363060 -1.794630 0.839290 
		CHANNELS 3 Zrotation Yrotation Xrotation
		JOINT LeftLeg
		{
			OFFSET 2.448110 -6.726130 0.000000 
			CHANNELS 3 Zrotation Yrotation Xrotation
			JOINT LeftFoot
			{
				OFFSET 2.562200 -7.039590 0.000000 
				CHANNELS 3 Zrotation Yrotation Xrotation
				JOINT LeftToeBase
				{
					OFFSET 0.157640 -0.433110 2.322550 
					CHANNELS 3 Zrotation Yrotation Xrotation
					End Site
					{
						OFFSET 0.000000 0.000000 0.000000 
					}
				}
			}
		}
	}
	JOINT RightUpLeg
	{
		OFFSET -1.305520 -1.794630 0.839290 
		CHANNELS 3 Zrotation Yrotation Xrotation
		JOINT RightLeg
		{
			OFFSET -2.542530 -6.985550 0.000000 
			CHANNELS 3 Zrotation Yrotation Xrotation
			JOINT RightFoot
			{
				OFFSET -2.568260 -7.056230 0.000000 
				CHANNELS 3 Zrotation Yrotation Xrotation
				JOINT RightToeBase
				{
					OFFSET -0.164730 -0.452590 2.363150 
					CHANNELS 3 Zrotation Yrotation Xrotation
					End Site
					{
						OFFSET 0.000000 0.000000 0.000000 
					}
				}
			}
		}
	}
	JOINT Spine
	{
		OFFSET 0.028270 2.035590 -0.193380 
		CHANNELS 3 Zrotation Yrotation Xrotation
		JOINT Spine1
		{
			OFFSET 0.056720 2.048850 -0.042750 
			CHANNELS 3 Zrotation Yrotation Xrotation
			JOINT Neck1
			{
				OFFSET -0.054170 1.746240 0.172020 
				CHANNELS 3 Zrotation Yrotation Xrotation
				JOINT Head
				{
					OFFSET 0.104070 1.761360 -0.123970 
					CHANNELS 3 Zrotation Yrotation Xrotation
					End Site
					{
						OFFSET 0.000000 0.000000 0.000000 
					}
				}
			}
			JOINT LeftArm
			{
				OFFSET 3.362410 1.200890 -0.311210 
				CHANNELS 3 Zrotation Yrotation Xrotation
				JOINT LeftForeArm
				{
					OFFSET 4.983000 -0.000000 -0.000000 
					CHANNELS 3 Zrotation Yrotation Xrotation
					JOINT LeftHand
					{
						OFFSET 3.483560 -0.000000 -0.000000 
						CHANNELS 3 Zrotation Yrotation Xrotation
						JOINT LeftHandIndex1
						{
							OFFSET 0.715260 -0.000000 -0.000000 
							CHANNELS 3 Zrotation Yrotation Xrotation
							End Site
							{
								OFFSET 0.000000 0.000000 0.000000 
							}
						}
					}
				}
			}
			JOINT RightArm
			{
				OFFSET -3.136600 1.374050 -0.404650 
				CHANNELS 3 Zrotation Yrotation Xrotation
				JOINT RightForeArm
				{
					OFFSET -5.241900 -0.000000 -0.000000 
					CHANNELS 3 Zrotation Yrotation Xrotation
					JOINT RightHand
					{
						OFFSET -3.444170 -0.000000 -0.000000 
						CHANNELS 3 Zrotation Yrotation Xrotation
						JOINT RightHandIndex1
						{
							OFFSET -0.622530 -0.000000 -0.000000 
							CHANNELS 3 Zrotation Yrotation Xrotation
							End Site
							{
								OFFSET 0.000000 0.000000 0.000000 
							}
						}
					}
				}
			}
		}
	}
}
MOTION
Frames: 14
Frame Time: 0.041667
7.693318 17.053653 -51.557714 -5.972512 -14.339728 10.720621 1.670901 -2.169256 -34.522374 -2.383704 9.215483 15.084376 -3.570196 14.812111 14.126274 0.495800 -4.514400 -12.528400 15.218160 6.846081 5.762398 5.017691 0.656743 2.360115 -0.465507 -9.351734 29.791590 0.000000 0.000000 0.000000 0.662219 9.041061 -3.633096 -4.635057 5.441400 -0.597391 5.216241 -3.358271 10.425986 1.002400 -1.448200 5.832300 -87.398270 15.591681 -23.575285 -0.807381 -2.445763 -0.396273 -0.568610 2.813546 43.971324 -7.125000 0.000000 0.000000 77.895676 9.884024 33.453311 -40.678025 43.746082 -22.026666 2.417363 2.054443 -9.273186 7.125000 0.000000 0.000000 
7.715793 17.054934 -51.240730 -5.759950 -15.121369 10.880056 1.490624 -1.862141 -34.529213 -2.516767 8.975298 14.677903 -2.724529 13.399651 14.766400 0.243300 -3.174000 -8.763500 14.504800 7.650944 6.424616 5.017470 0.677284 2.366786 -0.481168 -9.392817 29.962447 0.000000 0.000000 0.000000 0.576955 9.429075 -3.662528 -4.690513 5.664037 -0.768319 5.383505 -3.319766 10.469039 1.118200 -1.419300 5.647300 -87.174972 16.738246 -23.391427 -0.973834 -2.296424 -0.359810 -0.685834 2.751454 43.133220 -7.125000 0.000000 0.000000 78.099488 9.315407 33.471554 -41.591479 44.262203 -22.723468 2.402337 1.982501 -9.351343 7.125000 0.000000 0.000000 
7.731049 17.073101 -50.925144 -5.042939 -15.917417 10.910007 0.963309 -1.769200 -34.305694 -2.706213 8.717300 14.316081 -1.894603 11.933921 15.158553 0.037600 -1.251400 -3.440800 13.120842 8.434226 6.955142 4.986913 0.688991 2.412073 -0.518665 -9.513746 30.358831 0.000000 0.000000 0.000000 0.498862 9.602014 -3.640970 -4.569596 5.788533 -0.745330 5.256657 -3.394348 10.116213 0.914700 -1.454500 5.339300 -87.102983 17.055411 -23.613372 -1.270238 -1.912199 -0.329127 -0.751269 2.745498 42.048528 -7.125000 0.000000 0.000000 78.169192 9.359211 33.551290 -42.343811 44.600472 -23.282521 2.397036 1.907074 -9.168584 7.125000 0.000000 0.000000 
7.751777 17.073800 -50.610256 -4.682286 -15.881986 10.927753 0.964174 -2.658022 -33.715507 -2.861445 8.547712 14.067790 -1.097609 10.524079 15.518335 0.008800 0.604600 1.661300 12.418147 8.363360 7.347770 4.935062 0.703270 2.504573 -0.529645 -9.521605 30.503209 0.000000 0.000000 0.000000 0.475820 9.344465 -3.640586 -4.383238 5.687712 -0.391113 5.590902 -3.389438 10.402230 1.271000 -1.440000 5.895900 -87.196256 16.799185 -24.071240 -1.675183 -1.275226 -0.292182 -0.996401 2.652786 40.958213 -7.125000 0.000000 0.000000 78.071862 9.755184 33.647226 -42.769862 44.739123 -23.561113 2.399194 1.791011 -8.710370 7.125000 0.000000 0.000000 
7.773437 17.066230 -50.288847 -4.578596 -15.596349 10.952930 0.038078 -1.686741 -33.806170 -2.976150 8.343646 13.855282 -0.611339 10.158098 17.980698 0.046000 1.383900 3.805800 12.081790 8.067977 7.820423 4.883359 0.723068 2.605109 -0.524650 -9.465740 30.498907 0.000000 0.000000 0.000000 0.461777 9.115155 -3.664714 -4.524343 5.583938 -0.652405 5.446858 -3.619254 10.123308 1.114900 -1.564700 5.403900 -87.214175 17.515466 -24.322466 -2.001487 -0.810743 -0.255857 -1.248464 2.501679 39.800707 -7.125000 0.000000 0.000000 78.368964 9.199148 33.668362 -43.218901 45.005929 -23.865358 2.370128 1.701092 -8.376395 7.125000 0.000000 0.000000 
7.783336 17.047016 -49.974193 -4.464276 -15.652408 10.811178 -1.604859 0.584141 -34.408522 -2.973633 8.318414 14.009849 -0.813897 11.365915 21.166549 0.049000 1.428500 3.928700 11.749264 8.087194 8.519949 4.842775 0.747536 2.687449 -0.517448 -9.404285 30.475166 0.000000 0.000000 0.000000 0.339685 9.567889 -3.754655 -5.027619 5.793971 -1.712982 5.356680 -4.208326 9.724211 0.853000 -1.849900 4.434200 -86.182475 19.495455 -23.257447 -2.144328 -0.791886 -0.209927 -1.519451 2.173982 38.881716 -7.125000 0.000000 0.000000 79.608166 7.187047 32.611683 -43.970790 45.542319 -24.503427 2.321351 1.610925 -8.028881 7.125000 0.000000 0.000000 
7.788809 17.058311 -49.666409 -4.383413 -15.386169 10.666816 -2.859855 2.205851 -34.884853 -2.793790 8.551118 14.319733 -1.908071 14.496164 23.839438 0.001100 -0.210500 -0.578400 11.380530 7.869400 8.917523 4.794815 0.766173 2.773994 -0.512811 -9.362495 30.491290 0.000000 0.000000 0.000000 0.325457 9.457249 -3.804119 -5.002360 5.735837 -2.094483 5.447222 -4.265344 9.543313 0.982600 -1.884600 4.755900 -85.999699 20.030486 -23.184267 -2.352635 -0.518572 -0.185554 -1.801682 1.783169 38.363924 -7.125000 0.000000 0.000000 80.091315 6.189138 32.264584 -44.668449 45.919888 -25.072185 2.303528 1.571457 -8.116406 7.125000 0.000000 0.000000 
7.801852 17.129115 -49.331491 -4.117241 -15.105993 10.592988 -4.187725 3.718000 -35.551467 -2.458068 9.019388 14.810694 -3.247735 18.763381 26.797057 1.266900 -7.134500 -20.114500 10.817991 7.635592 9.068594 4.741865 0.780156 2.857252 -0.515438 -9.363621 30.605488 0.000000 0.000000 0.000000 0.360955 9.027867 -3.806923 -4.655911 5.541211 -1.930085 5.698518 -4.034912 9.850217 1.100600 -1.750700 4.598600 -86.462780 20.013027 -23.847859 -2.564181 -0.152455 -0.176067 -2.037497 1.366588 37.906073 -7.125000 0.000000 0.000000 80.117862 5.764221 32.498534 -44.966892 46.091620 -25.297396 2.289240 1.589826 -8.519965 7.125000 0.000000 0.000000 
7.830033 17.182683 -48.968159 -3.820660 -15.178997 10.767911 -2.729251 0.608877 -34.072028 -2.523549 9.309341 15.854906 -2.408091 15.910704 24.851743 0.353100 3.817800 10.564600 10.164543 7.804317 9.239533 4.705471 0.779441 2.900860 -0.525194 -9.413677 30.775622 0.000000 0.000000 0.000000 0.348773 8.891146 -3.785193 -4.541594 5.498283 -1.584763 5.761319 -4.051720 9.863744 1.104600 -1.750500 4.549100 -86.795095 20.610562 -24.231454 -2.348188 -0.445273 -0.157735 -2.067729 0.896943 37.364334 -7.125000 0.000000 0.000000 80.480378 5.201813 32.354772 -44.906323 46.147597 -25.234246 2.251424 1.583835 -8.641198 7.125000 0.000000 0.000000 
7.838534 17.275495 -48.663985 -3.342149 -14.058064 10.451288 -1.893903 -1.718855 -33.030517 -2.452206 9.540360 16.461166 -2.486090 15.705485 24.072430 0.915500 6.096600 17.065000 9.300482 5.127084 5.676350 3.014479 -3.278186 9.248685 11.188540 -32.142669 18.766385 -0.590200 -4.918600 13.676400 0.340838 8.484004 -3.832014 -4.554674 5.262725 -1.853487 5.891746 -4.292383 9.657940 1.127900 -1.860000 4.432400 -86.565582 21.081596 -23.984582 -2.128002 -0.818706 -0.135826 -1.895301 0.649837 36.985322 -7.125000 0.000000 0.000000 81.302795 4.308807 31.552024 -44.980326 46.238562 -25.305038 2.222226 1.544522 -8.955768 7.125000 0.000000 0.000000 
7.853207 17.397654 -48.345138 -2.261562 -13.206883 10.590162 -1.952298 -3.151244 -32.251650 -2.488413 9.705667 17.054957 -2.314625 14.964102 23.252564 1.427800 7.555700 21.372400 7.559315 4.846831 2.388055 1.990465 -5.450438 13.041222 2.751484 -28.114517 41.260907 -7.049500 -15.373400 49.061100 0.288003 8.157710 -3.885921 -4.387443 5.087000 -1.941264 6.245992 -4.267773 9.613685 1.436800 -1.840100 4.524000 -86.199644 20.893516 -23.675630 -2.292749 -0.637442 -0.098038 -1.560346 0.850443 36.755602 -7.125000 0.000000 0.000000 82.117668 3.217469 30.768493 -45.021390 46.368346 -25.401522 2.239183 1.544646 -9.603595 7.125000 0.000000 0.000000 
7.874984 17.423390 -48.021401 -1.029671 -11.841862 10.589459 -4.585515 -1.356500 -33.183519 -2.503901 9.715774 17.686526 -2.188409 15.161965 25.045092 1.206100 6.967300 19.618500 7.425787 6.115464 0.629216 3.094758 -4.909311 17.557126 -5.068575 -3.462796 49.125907 -0.635500 -5.100700 14.195900 0.241617 7.549954 -3.906788 -4.110010 4.683778 -1.803692 6.480675 -4.079805 9.530194 1.633400 -1.742000 4.529200 -86.138558 20.499752 -23.716143 -2.399679 -0.522519 -0.076881 -1.041521 1.387217 36.621909 -7.125000 0.000000 0.000000 82.764365 2.218116 30.275882 -44.761813 46.377847 -25.252584 2.269173 1.582112 -10.333083 7.125000 0.000000 0.000000 
7.889191 17.401846 -47.711870 -0.779089 -11.265924 10.223590 -6.765139 1.136882 -34.160606 -2.424689 9.816354 18.217708 -1.847923 15.617888 28.063107 0.047400 1.405600 3.865700 7.656879 6.006149 -0.243180 2.275674 -6.360530 21.243106 -4.892752 -3.746338 49.605396 0.000000 -0.001200 0.003400 0.230583 7.360707 -3.874286 -3.948495 4.554969 -1.502313 6.491016 -4.605816 9.840602 1.614600 -1.984700 4.896700 -86.103453 19.988200 -23.735463 -2.325841 -0.740870 -0.228969 0.261280 2.910304 36.379122 -7.125000 0.000000 0.000000 83.381225 1.407892 29.532385 -44.310556 46.281033 -24.955394 2.268244 1.619277 -11.145252 7.125000 0.000000 0.000000 
7.897808 17.375528 -47.420273 -1.815517 -10.873453 9.762450 -6.600743 2.077298 -33.886241 -2.309953 9.801493 18.520453 -1.205627 14.978201 30.123342 0.071200 -1.722000 -4.737900 9.202358 6.250531 -0.404924 1.206195 -7.938872 24.659584 -4.299458 -6.223964 49.884545 -0.113200 2.169200 -5.973400 0.258122 7.467360 -3.856851 -4.299885 4.549603 -1.570362 6.674014 -4.681342 9.674826 1.683800 -1.997300 4.900500 -85.758069 19.691268 -23.343886 -2.104065 -1.059204 -0.239908 0.270410 2.840043 36.103338 -7.125000 0.000000 0.000000 84.329421 0.413901 28.442646 -43.978620 46.220234 -24.699864 2.193457 1.637590 -11.794105 7.125000 0.000000 0.000000 
